HIERARCHY
ROOT hip
{
  OFFSET 0 90.174 2.4664
  CHANNELS 6 Xposition Yposition Zposition Zrotation Xrotation Yrotation
  JOINT abdomen
  {
    OFFSET 0 -1.186 -1.5018
    CHANNELS 6 Xposition Yposition Zposition Zrotation Xrotation Yrotation
    JOINT abdomen2
    {
      OFFSET 0 9.964 0.2134
      CHANNELS 6 Xposition Yposition Zposition Zrotation Xrotation Yrotation
      JOINT chest
      {
        OFFSET 0 13.134 -3.2573
        CHANNELS 6 Xposition Yposition Zposition Zrotation Xrotation Yrotation
        JOINT neck
        {
          OFFSET 0 20.686 -1.6905
          CHANNELS 6 Xposition Yposition Zposition Zrotation Xrotation Yrotation
          JOINT head
          {
            OFFSET 0 7.238 -0.1237
            CHANNELS 6 Xposition Yposition Zposition Zrotation Xrotation Yrotation
            End Site
            {
              OFFSET 0 0 0
            }
          }
        }
        JOINT lCollar
        {
          OFFSET 1.7069 20.075 5.0056
          CHANNELS 6 Xposition Yposition Zposition Zrotation Xrotation Yrotation
          JOINT lShldr
          {
            OFFSET 13.6458 -0.047 -4.849
            CHANNELS 6 Xposition Yposition Zposition Zrotation Xrotation Yrotation
            JOINT lForeArm
            {
              OFFSET 28.3255 -0.9759 2.2888
              CHANNELS 6 Xposition Yposition Zposition Zrotation Xrotation Yrotation
              JOINT lHand
              {
                OFFSET 22.1583 -0.53 10.8316
                CHANNELS 6 Xposition Yposition Zposition Zrotation Xrotation Yrotation
                JOINT lThumb1
                {
                  OFFSET 0.786 0.112 2.5817
                  CHANNELS 6 Xposition Yposition Zposition Zrotation Xrotation Yrotation
                  JOINT lThumb2
                  {
                    OFFSET 0.3601 -0.878 4.2331
                    CHANNELS 6 Xposition Yposition Zposition Zrotation Xrotation Yrotation
                    JOINT lThumb2_End
                    {
                      OFFSET 1.8127 -1.216 2.2227
                      CHANNELS 6 Xposition Yposition Zposition Zrotation Xrotation Yrotation
                      End Site
                      {
                        OFFSET 0.0181 -0.0122 0.0222
                      }
                    }
                  }
                }
                JOINT lCarpal1
                {
                  OFFSET 0.9571 1.114 1.7695
                  CHANNELS 6 Xposition Yposition Zposition Zrotation Xrotation Yrotation
                  JOINT lIndex1
                  {
                    OFFSET 4.1246 0.487 4.1451
                    CHANNELS 6 Xposition Yposition Zposition Zrotation Xrotation Yrotation
                    JOINT lIndex2
                    {
                      OFFSET 3.4052 -1.454 2.7682
                      CHANNELS 6 Xposition Yposition Zposition Zrotation Xrotation Yrotation
                      JOINT lIndex2_End
                      {
                        OFFSET 1.4531 -1.795 1.2713
                        CHANNELS 6 Xposition Yposition Zposition Zrotation Xrotation Yrotation
                        End Site
                        {
                          OFFSET 0.0145 -0.0179 0.0127
                        }
                      }
                    }
                  }
                  JOINT lMid1
                  {
                    OFFSET 5.6954 0.21 2.1184
                    CHANNELS 6 Xposition Yposition Zposition Zrotation Xrotation Yrotation
                    JOINT lMid2
                    {
                      OFFSET 3.9766 -1.54 2.3863
                      CHANNELS 6 Xposition Yposition Zposition Zrotation Xrotation Yrotation
                      JOINT lMid2_End
                      {
                        OFFSET 1.4042 -1.926 1.125
                        CHANNELS 6 Xposition Yposition Zposition Zrotation Xrotation Yrotation
                        End Site
                        {
                          OFFSET 0.014 -0.0193 0.0113
                        }
                      }
                    }
                  }
                }
                JOINT lCarpal2
                {
                  OFFSET 2.0956 0.66 -0.3894
                  CHANNELS 6 Xposition Yposition Zposition Zrotation Xrotation Yrotation
                  JOINT lRing1
                  {
                    OFFSET 5.0395 -0.09 2.4971
                    CHANNELS 6 Xposition Yposition Zposition Zrotation Xrotation Yrotation
                    JOINT lRing2
                    {
                      OFFSET 3.7921 -1.552 1.4806
                      CHANNELS 6 Xposition Yposition Zposition Zrotation Xrotation Yrotation
                      JOINT lRing2_End
                      {
                        OFFSET 1.4655 -1.808 0.9609
                        CHANNELS 6 Xposition Yposition Zposition Zrotation Xrotation Yrotation
                        End Site
                        {
                          OFFSET 0.0147 -0.0181 0.0096
                        }
                      }
                    }
                  }
                  JOINT lPinky1
                  {
                    OFFSET 4.9141 -1.269 0.3591
                    CHANNELS 6 Xposition Yposition Zposition Zrotation Xrotation Yrotation
                    JOINT lPinky2
                    {
                      OFFSET 3.1477 -1.685 0.8462
                      CHANNELS 6 Xposition Yposition Zposition Zrotation Xrotation Yrotation
                      JOINT lPinky2_End
                      {
                        OFFSET 0.8055 -1.585 0.7955
                        CHANNELS 6 Xposition Yposition Zposition Zrotation Xrotation Yrotation
                        End Site
                        {
                          OFFSET 0.0081 -0.0158 0.008
                        }
                      }
                    }
                  }
                }
              }
            }
          }
        }
        JOINT rCollar
        {
          OFFSET -1.7069 20.075 5.0056
          CHANNELS 6 Xposition Yposition Zposition Zrotation Xrotation Yrotation
          JOINT rShldr
          {
            OFFSET -13.6458 -0.047 -4.849
            CHANNELS 6 Xposition Yposition Zposition Zrotation Xrotation Yrotation
            JOINT rForeArm
            {
              OFFSET -28.3255 -0.9759 2.2888
              CHANNELS 6 Xposition Yposition Zposition Zrotation Xrotation Yrotation
              JOINT rHand
              {
                OFFSET -22.1583 -0.53 10.8316
                CHANNELS 6 Xposition Yposition Zposition Zrotation Xrotation Yrotation
                JOINT rThumb1
                {
                  OFFSET -0.786 0.112 2.5817
                  CHANNELS 6 Xposition Yposition Zposition Zrotation Xrotation Yrotation
                  JOINT rThumb2
                  {
                    OFFSET -0.3601 -0.878 4.2331
                    CHANNELS 6 Xposition Yposition Zposition Zrotation Xrotation Yrotation
                    JOINT rThumb2_End
                    {
                      OFFSET -1.8127 -1.216 2.2227
                      CHANNELS 6 Xposition Yposition Zposition Zrotation Xrotation Yrotation
                      End Site
                      {
                        OFFSET -0.0181 -0.0122 0.0222
                      }
                    }
                  }
                }
                JOINT rCarpal1
                {
                  OFFSET -0.9571 1.114 1.7695
                  CHANNELS 6 Xposition Yposition Zposition Zrotation Xrotation Yrotation
                  JOINT rIndex1
                  {
                    OFFSET -4.1246 0.487 4.1451
                    CHANNELS 6 Xposition Yposition Zposition Zrotation Xrotation Yrotation
                    JOINT rIndex2
                    {
                      OFFSET -3.4052 -1.454 2.7682
                      CHANNELS 6 Xposition Yposition Zposition Zrotation Xrotation Yrotation
                      JOINT rIndex2_End
                      {
                        OFFSET -1.4531 -1.795 1.2713
                        CHANNELS 6 Xposition Yposition Zposition Zrotation Xrotation Yrotation
                        End Site
                        {
                          OFFSET -0.0145 -0.018 0.0127
                        }
                      }
                    }
                  }
                  JOINT rMid1
                  {
                    OFFSET -5.6954 0.21 2.1184
                    CHANNELS 6 Xposition Yposition Zposition Zrotation Xrotation Yrotation
                    JOINT rMid2
                    {
                      OFFSET -3.9766 -1.54 2.3863
                      CHANNELS 6 Xposition Yposition Zposition Zrotation Xrotation Yrotation
                      JOINT rMid2_End
                      {
                        OFFSET -1.4042 -1.926 1.125
                        CHANNELS 6 Xposition Yposition Zposition Zrotation Xrotation Yrotation
                        End Site
                        {
                          OFFSET -0.014 -0.0193 0.0113
                        }
                      }
                    }
                  }
                }
                JOINT rCarpal2
                {
                  OFFSET -2.0956 0.66 -0.3894
                  CHANNELS 6 Xposition Yposition Zposition Zrotation Xrotation Yrotation
                  JOINT rRing1
                  {
                    OFFSET -5.0395 -0.09 2.4971
                    CHANNELS 6 Xposition Yposition Zposition Zrotation Xrotation Yrotation
                    JOINT rRing2
                    {
                      OFFSET -3.7921 -1.552 1.4806
                      CHANNELS 6 Xposition Yposition Zposition Zrotation Xrotation Yrotation
                      JOINT rRing2_End
                      {
                        OFFSET -1.4655 -1.808 0.9609
                        CHANNELS 6 Xposition Yposition Zposition Zrotation Xrotation Yrotation
                        End Site
                        {
                          OFFSET -0.0147 -0.0181 0.0096
                        }
                      }
                    }
                  }
                  JOINT rPinky1
                  {
                    OFFSET -4.9141 -1.269 0.3592
                    CHANNELS 6 Xposition Yposition Zposition Zrotation Xrotation Yrotation
                    JOINT rPinky2
                    {
                      OFFSET -3.1477 -1.685 0.8462
                      CHANNELS 6 Xposition Yposition Zposition Zrotation Xrotation Yrotation
                      JOINT rPinky2_End
                      {
                        OFFSET -0.8055 -1.585 0.7955
                        CHANNELS 6 Xposition Yposition Zposition Zrotation Xrotation Yrotation
                        End Site
                        {
                          OFFSET -0.0081 -0.0158 0.008
                        }
                      }
                    }
                  }
                }
              }
            }
          }
        }
      }
    }
  }
  JOINT lThigh
  {
    OFFSET 8.367 -8.2066 0.5982
    CHANNELS 6 Xposition Yposition Zposition Zrotation Xrotation Yrotation
    JOINT lShin
    {
      OFFSET 2.1923 -43.463 -0.4932
      CHANNELS 6 Xposition Yposition Zposition Zrotation Xrotation Yrotation
      JOINT lFoot
      {
        OFFSET 0.7333 -45.8593 -2.6451
        CHANNELS 6 Xposition Yposition Zposition Zrotation Xrotation Yrotation
        End Site
        {
          OFFSET 2.6618 -4.2699 12.3931
        }
      }
    }
  }
  JOINT rThigh
  {
    OFFSET -8.367 -8.2066 0.5982
    CHANNELS 6 Xposition Yposition Zposition Zrotation Xrotation Yrotation
    JOINT rShin
    {
      OFFSET -2.1923 -43.463 -0.4931
      CHANNELS 6 Xposition Yposition Zposition Zrotation Xrotation Yrotation
      JOINT rFoot
      {
        OFFSET -0.7333 -45.8593 -2.6451
        CHANNELS 6 Xposition Yposition Zposition Zrotation Xrotation Yrotation
        End Site
        {
          OFFSET -2.6618 -4.2699 12.3931
        }
      }
    }
  }
}
MOTION
Frames:	4
Frame Time:	0.0333333
0.693235 -8.3961 64.6827 -90.3963 -89.7304 89.3514 -1.11022e-016 -1.186 -1.5018 -1.79517 -5.39315 4.72501 -2.22045e-016 9.964 0.2134 -3.1572 -10.9142 9.34116 0 13.134 -3.2573 -3.15721 -10.9142 9.34116 0 20.686 -1.6905 6.05402 1.87566 17.571 -1.77636e-015 7.238 -0.1237 -4.35293e-006 -35.6203 -5.45362e-006 1.7069 20.075 5.0056 16.3208 -25.2783 5.65824 13.6458 -0.047 -4.849 -102.872 -8.67828 -46.8494 28.3255 -0.9759 2.2888 -7.37529 -10.9686 -73.7876 22.1583 -0.53 10.8316 -47.604 -7.18894 22.7236 0.786 0.112 2.5817 1.59028e-015 4.77083e-015 -3.18055e-015 0.3601 -0.878 4.2331 -1.59028e-015 7.95139e-015 3.18055e-015 1.8127 -1.216 2.2227 -3.53113e-031 6.36111e-015 3.18055e-015 0.9571 1.114 1.7695 -1.59028e-015 0 -3.18055e-015 4.1246 0.487 4.1451 -1.11319e-014 7.95139e-015 1.27222e-014 3.4052 -1.454 2.7682 3.18055e-015 9.54166e-015 -0 1.4531 -1.795 1.2713 1.59028e-015 6.36111e-015 6.36111e-015 5.6954 0.21 2.1184 -1.11319e-014 7.95139e-015 1.27222e-014 3.9766 -1.54 2.3863 3.18055e-015 9.54166e-015 -0 1.4042 -1.926 1.125 1.59028e-015 6.36111e-015 6.36111e-015 2.0956 0.66 -0.3894 -1.59028e-015 0 -3.18055e-015 5.0395 -0.09 2.4971 -1.11319e-014 7.95139e-015 1.27222e-014 3.7921 -1.552 1.4806 3.18055e-015 9.54166e-015 -0 1.4655 -1.808 0.9609 1.59028e-015 6.36111e-015 6.36111e-015 4.9141 -1.269 0.3591 -1.11319e-014 7.95139e-015 1.27222e-014 3.1477 -1.685 0.8462 3.18055e-015 9.54166e-015 -0 0.8055 -1.585 0.7955 1.59028e-015 6.36111e-015 6.36111e-015 -1.7069 20.075 5.0056 -2.62424 -20.829 -26.948 -13.6458 -0.047 -4.849 47.8301 -9.48061 38.7756 -28.3255 -0.9759 2.2888 9.77825 -26.1786 76.2515 -22.1583 -0.53 10.8316 18.1889 14.981 -9.08393 -0.786 0.112 2.5817 1.41674e-006 -3.10581e-006 6.90577e-008 -0.3601 -0.878 4.2331 -9.58975e-007 -1.18786e-006 6.97405e-007 -1.8127 -1.216 2.2227 1.59028e-015 -1.27222e-014 9.54166e-015 -0.9571 1.114 1.7695 -3.18055e-015 -8.74653e-015 3.18055e-015 -4.1246 0.487 4.1451 1.41674e-006 -3.10581e-006 6.90577e-008 -3.4052 -1.454 2.7682 -9.58975e-007 -1.18786e-006 6.97405e-007 -1.4531 -1.795 1.2713 3.18055e-015 -6.75868e-015 6.36111e-015 -5.6954 0.21 2.1184 1.41674e-006 -3.10581e-006 6.90577e-008 -3.9766 -1.54 2.3863 -9.58975e-007 -1.18786e-006 6.97405e-007 -1.4042 -1.926 1.125 3.18055e-015 -6.75868e-015 6.36111e-015 -2.0956 0.66 -0.3894 -3.18055e-015 -8.74653e-015 3.18055e-015 -5.0395 -0.09 2.4971 1.41674e-006 -3.10581e-006 6.90577e-008 -3.7921 -1.552 1.4806 -9.58975e-007 -1.18786e-006 6.97405e-007 -1.4655 -1.808 0.9609 3.18055e-015 -6.75868e-015 6.36111e-015 -4.9141 -1.269 0.3592 1.41674e-006 -3.10581e-006 6.90577e-008 -3.1477 -1.685 0.8462 -9.58975e-007 -1.18786e-006 6.97405e-007 -0.8055 -1.585 0.7955 3.18055e-015 -6.75868e-015 6.36111e-015 8.367 -8.2066 0.5982 2.97231 -3.79861 3.86706 2.1923 -43.463 -0.4932 10.0305 70.7314 -9.45517 0.7333 -45.8593 -2.6451 5.57345 28.5718 -11.9094 -8.367 -8.2066 0.5982 -1.01463 -3.45373 -5.55571 -2.1923 -43.463 -0.4931 -110.555 84.2354 105.822 -0.7333 -45.8593 -2.6451 -8.59795 59.9242 -3.00659 
0.693614 -8.38679 64.6742 -90.3963 -89.7304 89.3514 0 -1.186 -1.5018 -1.85449 -5.42126 4.82156 0 9.964 0.2134 -3.26478 -10.9775 9.52954 -8.88178e-016 13.134 -3.2573 -3.26479 -10.9775 9.52955 0 20.686 -1.6905 6.20939 1.72365 17.955 0 7.238 -0.1237 2.38878e-006 -35.1835 6.30602e-007 1.7069 20.075 5.0056 16.1472 -25.0721 5.54741 13.6458 -0.047 -4.849 -104.021 -8.57011 -47.0057 28.3255 -0.9759 2.2888 -7.31331 -10.6683 -73.8107 22.1583 -0.53 10.8316 -48.3355 -7.20915 22.7091 0.786 0.112 2.5817 3.18055e-015 2.8625e-014 -1.27222e-014 0.3601 -0.878 4.2331 4.77083e-015 2.70347e-014 -9.54166e-015 1.8127 -1.216 2.2227 6.36111e-015 2.70347e-014 -9.54166e-015 0.9571 1.114 1.7695 8.82781e-032 1.59028e-015 -3.18055e-015 4.1246 0.487 4.1451 3.00146e-030 2.70347e-014 -6.36111e-015 3.4052 -1.454 2.7682 3.18055e-015 2.54444e-014 -6.36111e-015 1.4531 -1.795 1.2713 1.59028e-015 2.38542e-014 -9.54166e-015 5.6954 0.21 2.1184 3.00146e-030 2.70347e-014 -6.36111e-015 3.9766 -1.54 2.3863 3.18055e-015 2.54444e-014 -6.36111e-015 1.4042 -1.926 1.125 1.59028e-015 2.38542e-014 -9.54166e-015 2.0956 0.66 -0.3894 8.82781e-032 1.59028e-015 -3.18055e-015 5.0395 -0.09 2.4971 3.00146e-030 2.70347e-014 -6.36111e-015 3.7921 -1.552 1.4806 3.18055e-015 2.54444e-014 -6.36111e-015 1.4655 -1.808 0.9609 1.59028e-015 2.38542e-014 -9.54166e-015 4.9141 -1.269 0.3591 3.00146e-030 2.70347e-014 -6.36111e-015 3.1477 -1.685 0.8462 3.18055e-015 2.54444e-014 -6.36111e-015 0.8055 -1.585 0.7955 1.59028e-015 2.38542e-014 -9.54166e-015 -1.7069 20.075 5.0056 -2.06735 -20.5621 -27.3407 -13.6458 -0.047 -4.849 47.8301 -9.4806 38.7756 -28.3255 -0.9759 2.2888 9.77987 -26.1763 76.2693 -22.1583 -0.53 10.8316 18.2488 15.4305 -8.77642 -0.786 0.112 2.5817 0 7.95139e-016 -0 -0.3601 -0.878 4.2331 -1.91943e-006 -2.37514e-006 1.39554e-006 -1.8127 -1.216 2.2227 1.59028e-015 0 6.36111e-015 -0.9571 1.114 1.7695 0 1.19271e-015 -0 -4.1246 0.487 4.1451 9.54166e-015 -1.35174e-014 -6.36111e-015 -3.4052 -1.454 2.7682 -1.91943e-006 -2.37514e-006 1.39554e-006 -1.4531 -1.795 1.2713 1.59028e-015 -4.77083e-015 3.18055e-015 -5.6954 0.21 2.1184 9.54166e-015 -1.35174e-014 -6.36111e-015 -3.9766 -1.54 2.3863 -1.91943e-006 -2.37514e-006 1.39554e-006 -1.4042 -1.926 1.125 1.59028e-015 -4.77083e-015 3.18055e-015 -2.0956 0.66 -0.3894 0 1.19271e-015 -0 -5.0395 -0.09 2.4971 9.54166e-015 -1.35174e-014 -6.36111e-015 -3.7921 -1.552 1.4806 -1.91943e-006 -2.37514e-006 1.39554e-006 -1.4655 -1.808 0.9609 1.59028e-015 -4.77083e-015 3.18055e-015 -4.9141 -1.269 0.3592 9.54166e-015 -1.35174e-014 -6.36111e-015 -3.1477 -1.685 0.8462 -1.91943e-006 -2.37514e-006 1.39554e-006 -0.8055 -1.585 0.7955 1.59028e-015 -4.77083e-015 3.18055e-015 8.367 -8.2066 0.5982 2.97512 -3.79393 3.83477 2.1923 -43.463 -0.4932 9.68467 70.3337 -9.17543 0.7333 -45.8593 -2.6451 5.38207 27.825 -12.1944 -8.367 -8.2066 0.5982 -1.01337 -3.46485 -5.55528 -2.1923 -43.463 -0.4931 -110.555 84.2354 105.823 -0.7333 -45.8593 -2.6451 -8.59448 59.9106 -3.00396 
0.693979 -8.37746 64.6658 -90.3963 -89.7304 89.3514 -1.11022e-016 -1.186 -1.5018 -1.91431 -5.44923 4.91766 0 9.964 0.2134 -3.37332 -11.0408 9.71693 8.88178e-016 13.134 -3.2573 -3.37332 -11.0408 9.71693 0 20.686 -1.6905 6.36551 1.57296 18.3392 0 7.238 -0.1237 6.92169e-006 -34.747 2.80672e-006 1.7069 20.075 5.0056 15.9744 -24.8657 5.43748 13.6458 -0.047 -4.849 -105.164 -8.45937 -47.159 28.3255 -0.9759 2.2888 -7.25127 -10.3682 -73.8341 22.1583 -0.53 10.8316 -49.0657 -7.22912 22.6944 0.786 0.112 2.5817 3.53113e-031 6.36111e-015 -3.18055e-015 0.3601 -0.878 4.2331 1.59028e-015 6.36111e-015 -3.18055e-015 1.8127 -1.216 2.2227 3.18055e-015 7.95139e-015 -3.18055e-015 0.9571 1.114 1.7695 0 0 -3.18055e-015 4.1246 0.487 4.1451 1.59028e-015 4.77083e-015 -0 3.4052 -1.454 2.7682 -7.06225e-031 6.36111e-015 6.36111e-015 1.4531 -1.795 1.2713 -1.59028e-015 4.77083e-015 -0 5.6954 0.21 2.1184 1.59028e-015 4.77083e-015 -0 3.9766 -1.54 2.3863 -7.06225e-031 6.36111e-015 6.36111e-015 1.4042 -1.926 1.125 -1.59028e-015 4.77083e-015 -0 2.0956 0.66 -0.3894 0 0 -3.18055e-015 5.0395 -0.09 2.4971 1.59028e-015 4.77083e-015 -0 3.7921 -1.552 1.4806 -7.06225e-031 6.36111e-015 6.36111e-015 1.4655 -1.808 0.9609 -1.59028e-015 4.77083e-015 -0 4.9141 -1.269 0.3591 1.59028e-015 4.77083e-015 -0 3.1477 -1.685 0.8462 -7.06225e-031 6.36111e-015 6.36111e-015 0.8055 -1.585 0.7955 -1.59028e-015 4.77083e-015 -0 -1.7069 20.075 5.0056 -1.51074 -20.2993 -27.7345 -13.6458 -0.047 -4.849 47.8301 -9.4806 38.7756 -28.3255 -0.9759 2.2888 9.78153 -26.174 76.287 -22.1583 -0.53 10.8316 18.3063 15.8798 -8.46904 -0.786 0.112 2.5817 4.53445e-007 -4.29552e-006 7.7608e-007 -0.3601 -0.878 4.2331 1.92104e-006 2.37448e-006 -1.3963e-006 -1.8127 -1.216 2.2227 2.37448e-006 -1.92104e-006 -6.20216e-007 -0.9571 1.114 1.7695 3.18055e-015 7.95139e-016 6.36111e-015 -4.1246 0.487 4.1451 4.53445e-007 -4.29552e-006 7.7608e-007 -3.4052 -1.454 2.7682 1.92104e-006 2.37448e-006 -1.3963e-006 -1.4531 -1.795 1.2713 2.37448e-006 -1.92104e-006 -6.20216e-007 -5.6954 0.21 2.1184 4.53445e-007 -4.29552e-006 7.7608e-007 -3.9766 -1.54 2.3863 1.92104e-006 2.37448e-006 -1.3963e-006 -1.4042 -1.926 1.125 2.37448e-006 -1.92104e-006 -6.20216e-007 -2.0956 0.66 -0.3894 3.18055e-015 7.95139e-016 6.36111e-015 -5.0395 -0.09 2.4971 4.53445e-007 -4.29552e-006 7.7608e-007 -3.7921 -1.552 1.4806 1.92104e-006 2.37448e-006 -1.3963e-006 -1.4655 -1.808 0.9609 2.37448e-006 -1.92104e-006 -6.20216e-007 -4.9141 -1.269 0.3592 4.53445e-007 -4.29552e-006 7.7608e-007 -3.1477 -1.685 0.8462 1.92104e-006 2.37448e-006 -1.3963e-006 -0.8055 -1.585 0.7955 2.37448e-006 -1.92104e-006 -6.20216e-007 8.367 -8.2066 0.5982 2.97792 -3.79136 3.80255 2.1923 -43.463 -0.4932 9.35286 69.9375 -8.90936 0.7333 -45.8593 -2.6451 5.18871 27.0806 -12.4799 -8.367 -8.2066 0.5982 -1.01199 -3.47879 -5.5547 -2.1923 -43.463 -0.4931 -110.583 84.2345 105.851 -0.7333 -45.8593 -2.6451 -8.591 59.8971 -3.00133 
0.694328 -8.3681 64.6573 -90.3963 -89.7304 89.3514 0 -1.186 -1.5018 -1.97462 -5.47721 5.0133 0 9.964 0.2134 -3.48281 -11.1041 9.90331 -8.88178e-016 13.134 -3.2573 -3.48281 -11.1041 9.90331 0 20.686 -1.6905 6.52291 1.42389 18.7235 0 7.238 -0.1237 -2.21589e-006 -34.3107 -4.96175e-006 1.7069 20.075 5.0056 15.8024 -24.6591 5.32848 13.6458 -0.047 -4.849 -106.301 -8.34616 -47.3094 28.3255 -0.9759 2.2888 -7.1892 -10.0682 -73.8578 22.1583 -0.53 10.8316 -49.7946 -7.2489 22.6795 0.786 0.112 2.5817 -1.59028e-015 -3.18055e-015 -0 0.3601 -0.878 4.2331 3.18055e-015 -1.59028e-015 -6.36111e-015 1.8127 -1.216 2.2227 4.77083e-015 -3.18055e-015 -6.36111e-015 0.9571 1.114 1.7695 -1.59028e-015 0 -0 4.1246 0.487 4.1451 3.18055e-015 -3.18055e-015 -6.36111e-015 3.4052 -1.454 2.7682 1.59028e-015 -4.77083e-015 -1.27222e-014 1.4531 -1.795 1.2713 -3.53113e-031 -3.18055e-015 -6.36111e-015 5.6954 0.21 2.1184 3.18055e-015 -3.18055e-015 -6.36111e-015 3.9766 -1.54 2.3863 1.59028e-015 -4.77083e-015 -1.27222e-014 1.4042 -1.926 1.125 -3.53113e-031 -3.18055e-015 -6.36111e-015 2.0956 0.66 -0.3894 -1.59028e-015 0 -0 5.0395 -0.09 2.4971 3.18055e-015 -3.18055e-015 -6.36111e-015 3.7921 -1.552 1.4806 1.59028e-015 -4.77083e-015 -1.27222e-014 1.4655 -1.808 0.9609 -3.53113e-031 -3.18055e-015 -6.36111e-015 4.9141 -1.269 0.3591 3.18055e-015 -3.18055e-015 -6.36111e-015 3.1477 -1.685 0.8462 1.59028e-015 -4.77083e-015 -1.27222e-014 0.8055 -1.585 0.7955 -3.53113e-031 -3.18055e-015 -6.36111e-015 -1.7069 20.075 5.0056 -0.954488 -20.0407 -28.1294 -13.6458 -0.047 -4.849 47.8301 -9.4806 38.7756 -28.3255 -0.9759 2.2888 9.78316 -26.1718 76.3047 -22.1583 -0.53 10.8316 18.3614 16.3289 -8.16175 -0.786 0.112 2.5817 2.37375e-006 -1.92277e-006 -6.15872e-007 -0.3601 -0.878 4.2331 -2.37375e-006 1.92277e-006 6.15872e-007 -1.8127 -1.216 2.2227 2.37375e-006 -1.92277e-006 -6.15872e-007 -0.9571 1.114 1.7695 3.18055e-015 -1.59028e-015 -0 -4.1246 0.487 4.1451 2.37375e-006 -1.92277e-006 -6.15872e-007 -3.4052 -1.454 2.7682 -2.37375e-006 1.92277e-006 6.15872e-007 -1.4531 -1.795 1.2713 2.37375e-006 -1.92277e-006 -6.15872e-007 -5.6954 0.21 2.1184 2.37375e-006 -1.92277e-006 -6.15872e-007 -3.9766 -1.54 2.3863 -2.37375e-006 1.92277e-006 6.15872e-007 -1.4042 -1.926 1.125 2.37375e-006 -1.92277e-006 -6.15872e-007 -2.0956 0.66 -0.3894 3.18055e-015 -1.59028e-015 -0 -5.0395 -0.09 2.4971 2.37375e-006 -1.92277e-006 -6.15872e-007 -3.7921 -1.552 1.4806 -2.37375e-006 1.92277e-006 6.15872e-007 -1.4655 -1.808 0.9609 2.37375e-006 -1.92277e-006 -6.15872e-007 -4.9141 -1.269 0.3592 2.37375e-006 -1.92277e-006 -6.15872e-007 -3.1477 -1.685 0.8462 -2.37375e-006 1.92277e-006 6.15872e-007 -0.8055 -1.585 0.7955 2.37375e-006 -1.92277e-006 -6.15872e-007 8.367 -8.2066 0.5982 2.98099 -3.78712 3.77057 2.1923 -43.463 -0.4932 9.0327 69.5394 -8.655 0.7333 -45.8593 -2.6451 4.99337 26.3386 -12.7659 -8.367 -8.2066 0.5982 -1.01073 -3.49008 -5.55425 -2.1923 -43.463 -0.4931 -110.584 84.2344 105.853 -0.7333 -45.8593 -2.6451 -8.58751 59.8835 -2.99869 
